<svg xmlns="http://www.w3.org/2000/svg" xmlns:xlink="http://www.w3.org/1999/xlink" width="920" height="415" viewBox="0 0 920 415">
  <defs>
    <clipPath id="clip-Featured_image_920x415_13_essential_tools_for_remote_software_development">
      <rect width="920" height="415"/>
    </clipPath>
  </defs>
  <g id="Featured_image_920x415_13_essential_tools_for_remote_software_development" data-name="Featured image – 920x415_13 essential tools for remote software development" clip-path="url(#clip-Featured_image_920x415_13_essential_tools_for_remote_software_development)">
    <rect width="920" height="415" fill="#fff"/>
    <rect id="Rectangle_4391" data-name="Rectangle 4391" width="631.214" height="0.443" transform="translate(144.393 364.021)" fill="#1d1d1b"/>
    <g id="Group_25913" data-name="Group 25913" transform="translate(418.02 26.162)">
      <path id="Path_9810" data-name="Path 9810" d="M94.926,59.93V204.315H317.436V59.93H94.79m-2.55-2.55H320.02V206.967H92.24V57.38Z" transform="translate(-82.314 -29.162)" fill="#222837"/>
      <rect id="Rectangle_6089" data-name="Rectangle 6089" width="35.527" height="35.527" transform="translate(32.977 116.882)" fill="#74e4c8"/>
      <rect id="Rectangle_6090" data-name="Rectangle 6090" width="35.527" height="35.527" transform="translate(95.09 116.882)" fill="#88e8d0"/>
      <rect id="Rectangle_6091" data-name="Rectangle 6091" width="126.435" height="6.153" transform="translate(29.236 84.55)" fill="#383d4b"/>
      <rect id="Rectangle_6092" data-name="Rectangle 6092" width="126.435" height="6.153" transform="translate(29.236 68.368)" fill="#383d4b"/>
      <rect id="Rectangle_6093" data-name="Rectangle 6093" width="126.435" height="6.153" transform="translate(29.236 52.22)" fill="#383d4b"/>
      <path id="Path_9824" data-name="Path 9824" d="M149.09,136.584h44.434v-.85H149.94V92.15h-.85Z" transform="translate(-149.09 54.275)" fill="#1d1d1b"/>
      <path id="Path_9825" data-name="Path 9825" d="M132.24,93.514h.85V49.08H88.69v.85h43.55Z" transform="translate(116.688 -49.08)" fill="#1d1d1b"/>
      <rect id="Rectangle_6094" data-name="Rectangle 6094" width="227.746" height="18.154" transform="translate(10.063 13.871)" fill="#39d8b0"/>
      <rect id="Rectangle_6095" data-name="Rectangle 6095" width="59.631" height="104.031" transform="translate(164.647 52.22)" fill="#383d4b"/>
    </g>
    <g id="APPLOVER_ilustration_EXPORT_APPLOVER_ilu-17" transform="translate(238.689 89.379)">
      <path id="Path_9773" data-name="Path 9773" d="M98.7,195.508h0c.758-.161,1.125-1.447.85-2.894l-15.5-78.977c-.3-1.585-1.286-2.8-2.136-2.6l-5.328,1.24c-.85.207-1.194,1.7-.758,3.284l20.692,77.691C97.026,194.7,97.922,195.692,98.7,195.508Z" transform="translate(76.817 63.951)" fill="#bdbec3"/>
      <path id="Path_9774" data-name="Path 9774" d="M106.917,195.978h0c-.781-.161-1.148-1.447-.85-2.894l15.478-78.977c.322-1.585,1.286-2.8,2.136-2.6l5.328,1.24c.85.207,1.194,1.7.781,3.284l-20.829,77.691C108.525,195.175,107.629,196.162,106.917,195.978Z" transform="translate(-23.143 64.56)" fill="#bdbec3"/>
      <path id="Path_9775" data-name="Path 9775" d="M110.837,190.349h0c-.781-.184-1.148-1.447-.85-2.894l15.479-78.977c.322-1.608,1.286-2.8,2.136-2.6l5.328,1.24c.85.207,1.194,1.7.781,3.261L112.95,188.1C112.491,189.545,111.595,190.532,110.837,190.349Z" transform="translate(-36.066 57.261)" fill="#bdbec3"/>
      <path id="Path_9776" data-name="Path 9776" d="M78.049,115.063c1.079.942,2.159,1.837,3.077,2.664a6.384,6.384,0,0,0,.505-2.687Z" transform="translate(89.295 69.163)" fill="#383d4b"/>
      <path id="Path_9777" data-name="Path 9777" d="M77.75,105.077c-2.3,20.232-.184,63.292,20.072,74.82,2.3,1.24,4.432.919,8.015,1.1-2.664-.62-2.779-6.683,1.745-6.706l64.831-.207h3.583c2.3,0-11.988-18.028-11.988-18.028-4.593-27.88,0-68.643-29.855-84.052A37.686,37.686,0,0,0,84.777,84.569a45.7,45.7,0,0,0-7.027,20.508Z" transform="translate(-2.933 7.544)" fill="#383d4b"/>
      <path id="Path_9778" data-name="Path 9778" d="M79.208,120.436a30.5,30.5,0,0,0,10.908.758l61.547-2.067a3.835,3.835,0,0,0,3.9-2.3c-.919-.827-1.975-1.722-3.077-2.664l-71.536-.436C76.429,113.753,76.544,119.816,79.208,120.436Z" transform="translate(16.967 67.464)" fill="#222837"/>
      <path id="Path_9779" data-name="Path 9779" d="M84.34,152.92l-.23,16.4v5.144l4.249,6.338,14.261-.873v-4.846c-2.526-2.3-8.727-5.512-9.714-8.8l-.436-11.069Z" transform="translate(54.39 118.274)" fill="#d7aa79"/>
      <path id="Path_9780" data-name="Path 9780" d="M86.8,172.441l-3.4-5.236v-4.157c1.447,0,7.395-9.485,10.748-1.01,7.877,3.674,8.842,7.716,9.439,10.2.276,1.125-.758,1.883-2.962,1.653l-11.483-.207a3.33,3.33,0,0,1-2.342-1.24Z" transform="translate(55.007 125.531)" fill="#3f77ee"/>
      <rect id="Rectangle_6081" data-name="Rectangle 6081" width="21.426" height="21.426" transform="translate(64.736 0)" fill="#c5d6fa"/>
      <rect id="Rectangle_6082" data-name="Rectangle 6082" width="21.426" height="21.426" transform="translate(25.81 0)" fill="#74e4c8"/>
      <path id="Path_9781" data-name="Path 9781" d="M136.882,102.32c-6.89-1.653-8.543-9.6-7.487-15.708a12.194,12.194,0,0,1,4.294-8.061,6.568,6.568,0,0,1,7.51-.276,5.512,5.512,0,0,1,1.814,6.5,5.672,5.672,0,0,1-6.407,3.215c-6.637-1.194-9.186-10.426-8.451-16.076.987-7.395,7.211-12.677,12.631-17.086.3-.23.689.184.413.413A40.97,40.97,0,0,0,130.75,66.219a17.109,17.109,0,0,0,.138,16.581,8.176,8.176,0,0,0,7.073,4.823,4.983,4.983,0,0,0,4.593-6.43,5.259,5.259,0,0,0-7.142-2.917,9.691,9.691,0,0,0-5.121,6.889c-1.562,6.109-.551,14.881,6.729,16.6a.284.284,0,0,1-.138.551Z" transform="translate(-87.28 -8.99)" fill="#1d1d1b"/>
      <path id="Path_9782" data-name="Path 9782" d="M60.575,174.066c-2.3-2.113-3.4-12.194-3.4-12.194l4.042-12.4,6.292.6-1.171,10.2c0,3.56,4.019,8.382,6.683,10.725l4.777,4.226C78.717,175.949,59.863,173.1,60.575,174.066Z" transform="translate(141.033 113.801)" fill="#d7aa79"/>
      <path id="Path_9783" data-name="Path 9783" d="M54.3,167.386l4.593-12.516c1.814,1.171,1.1,4.134,4.593,5.994,1.814.965,5.764-4,7.9-3.353,4.731,1.447-1.562,2.3,0,2.917A53.531,53.531,0,0,1,85.436,170.1h0a3.261,3.261,0,0,1-3.491,5.144Z" transform="translate(139.344 120.802)" fill="#3f77ee"/>
      <rect id="Rectangle_6083" data-name="Rectangle 6083" width="31.899" height="0.574" transform="translate(225.242 294.578) rotate(-163.69)" fill="#1d1d1b"/>
      <path id="Path_9784" data-name="Path 9784" d="M68.254,143.963l36.17,13.48,34.149,78.472,12.172-.987-17.959-79.321a31.531,31.531,0,0,0-8.153-15L95.192,117.645c-.574-7.142-.8-19.819-3.881-26.295L60.63,111.72Z" transform="translate(60.187 38.448)" fill="#39d8b0"/>
      <path id="Path_9785" data-name="Path 9785" d="M117.973,116.254l16.213,27.42a16.971,16.971,0,0,1,2.71,12.975l-1.01,80.378-15,1.194-8.382-74.705s-26.341-30.222-26.548-41.337a103.552,103.552,0,0,1,4-25.859l30.107,7.831Z" transform="translate(15.543 44.892)" fill="#88e8d0"/>
      <path id="Path_9786" data-name="Path 9786" d="M91.943,106.973c4.455,11.276,12.723,20.806,21.771,28.683,1.056.919,2.136,1.837,3.238,2.71s2.021,1.378,2.434,2.3a3.283,3.283,0,0,1,.161.85c.184,1.631.276,3.284.367,4.937,1.01,15.57,1.7,31.164,2.549,46.757.482,9.048.965,18.1,1.562,27.145a.287.287,0,0,1-.574,0c-1.1-16.764-1.906-33.552-2.8-50.339-.367-7.165-.735-14.353-1.171-21.518-.138-2-.253-4.019-.413-6.017a9.026,9.026,0,0,0-.138-1.378c-.413-1.378-2.664-2.664-3.835-3.628-9.852-8.222-18.923-18.372-23.7-30.452-.138-.344.413-.505.551-.161Z" transform="translate(16.312 58.306)" fill="#fff"/>
      <path id="Path_9787" data-name="Path 9787" d="M110.369,110.756c13.274-3.422,10.082-36.514,10.082-36.514l-6.247-2.3a39.039,39.039,0,0,0-4.455-5.6c-.367-.321-.827,0-.9-.3-.161-.873-.276-1.768-.367-2.687-6.453,2.779-16.076-2.5-17.362-3.537a9.818,9.818,0,0,0,.276,1.86,12.217,12.217,0,0,1-1.653,8.061,11.712,11.712,0,0,1-4.409,4.272h0C83.775,76.47,95.143,114.615,110.369,110.756Z" transform="translate(33.734 -2.43)" fill="#d7aa79"/>
      <path id="Path_9788" data-name="Path 9788" d="M88.382,94.051l-5.9,23.677,55.69,2.113,4.065-29.9L125.1,101.79Z" transform="translate(18.518 36.62)" fill="#222837"/>
      <path id="Path_9789" data-name="Path 9789" d="M111.861,65.427h0a14.4,14.4,0,0,1-4.593-2.3L105.156,68.3a7.946,7.946,0,0,1-13.963,1.447l-3.9-5.856a11.965,11.965,0,0,1-4.8,3.835h0c-1.1,1.424-11.919,38.834-3.927,59,4.616,12.034,26.617,11.9,32.45,10.954l11.483-.988,3.238-18.372,1.722-17.43,9.025,6.89,2.641-27.857S116.064,66.322,111.861,65.427Z" transform="translate(37.34 1.861)" fill="#222837"/>
      <path id="Path_9790" data-name="Path 9790" d="M122.431,107.838c-3.858.367-18.6,1.791-22.207,2.3-.574-13,.253-25.262,6.224-34.448,3.284-4.96,13.641-9.186,17.706-10.587C125.83,73.689,123.992,94.22,122.431,107.838Z" transform="translate(-4.462 4.415)" fill="#222837"/>
      <path id="Path_9791" data-name="Path 9791" d="M154.642,107.315c-.23,1.24.161,3.054-.689,4.157-1.768,2.3-5.741,3.353-11.483,5.052l-51.557-3.261A15.18,15.18,0,0,1,77.663,99.484c-.344-4.593-.689-9.048-.85-13.458,3.606-.39,18.372-1.814,22.207-2.3-.85,7.693-1.631,13.182-1.631,13.182l43.358,11.276c3.858-2.8,5.167-7.28,5.971-6.89,1.171.6.827,3.4.758,4.593s2.3-1.562,2.5-1.768C156.066,98.129,154.711,106.718,154.642,107.315Z" transform="translate(18.948 28.569)" fill="#d7aa79"/>
      <path id="Path_9792" data-name="Path 9792" d="M102.44,79.825l-1.745,9.186c0,.367-.62.23-.551-.138l1.745-9.186c0-.367.62-.207.551.161Z" transform="translate(17.757 23.058)" fill="#fff"/>
      <path id="Path_9793" data-name="Path 9793" d="M131.284,238.586h0c-.758-.161-1.148-1.447-.85-2.894l14.146-134.024c.3-1.608,1.286-2.8,2.136-2.618l5.328,1.24c.85.207,1.194,1.7.781,3.284L133.374,236.336C132.938,237.782,132.042,238.77,131.284,238.586Z" transform="translate(-102.144 48.408)" fill="#222837"/>
      <path id="Path_9794" data-name="Path 9794" d="M68.271,238.586h0c.758-.161,1.125-1.447.85-2.894L55.02,101.669c-.322-1.608-1.309-2.8-2.136-2.618l-5.351,1.24c-.827.207-1.194,1.7-.758,3.284L66.2,236.336C66.617,237.782,67.513,238.77,68.271,238.586Z" transform="translate(173.962 48.408)" fill="#222837"/>
      <rect id="Rectangle_6084" data-name="Rectangle 6084" width="219.501" height="10.587" rx="2.31" transform="translate(32.217 139.191)" fill="#f6f8fa"/>
      <path id="Path_9795" data-name="Path 9795" d="M74.126,51.843c.161-.8,0,1.562.643,2.044l1.286,4.065c1.01.735,4.846,7.693,3.445,10.174,5.856,4.134,27.972,31.3,31.944,36.744,5.1,7.119,5.42,17.637,1.768,20.278s-9.416,2.825-17.591-2.641c0,0-11.666-32.013-19.635-45.792a58.627,58.627,0,0,0-7.9-6.752Z" transform="translate(78.153 -12.986)" fill="#d7aa79"/>
      <rect id="Rectangle_6085" data-name="Rectangle 6085" width="10.702" height="19.681" rx="0.6" transform="translate(160.397 51.603) rotate(150)" fill="#222837"/>
      <path id="Path_9796" data-name="Path 9796" d="M83.024,53.049h0a3.491,3.491,0,0,1,5.535,1.24l1.676,3.927a1.837,1.837,0,0,1-2.779,2.3Z" transform="translate(69.048 -12.355)" fill="#d7aa79"/>
      <rect id="Rectangle_6086" data-name="Rectangle 6086" width="15.111" height="0.574" transform="translate(156.512 296.791) rotate(-179.1)" fill="#1d1d1b"/>
      <path id="Path_9797" data-name="Path 9797" d="M55.84,104.023H81.331l-2.94-15.2H60.479Z" transform="translate(140.601 35.168)" fill="#e5e5e5"/>
      <rect id="Rectangle_6087" data-name="Rectangle 6087" width="102.287" height="69.469" rx="1.83" transform="translate(158.043 59.732)" fill="#e5e5e5"/>
      <ellipse id="Ellipse_905" data-name="Ellipse 905" cx="7.831" cy="7.831" rx="7.831" ry="7.831" transform="translate(201.355 86.624)" fill="#fff"/>
      <path id="Path_9798" data-name="Path 9798" d="M130,113.044h15.019l3.054-30.7h-21.4Z" transform="translate(-88.803 26.767)" fill="#222837"/>
      <path id="Path_9799" data-name="Path 9799" d="M128.255,97.7h18.418l1.4-11.092h-21.4Z" transform="translate(-88.803 32.303)" fill="#e8e2dd"/>
      <path id="Path_9800" data-name="Path 9800" d="M127.392,81.77h21.472l.643,2.618H126.45Z" transform="translate(-89.732 26.028)" fill="#e8e2dd"/>
      <ellipse id="Ellipse_906" data-name="Ellipse 906" cx="2.687" cy="2.687" rx="2.687" ry="2.687" transform="translate(46.134 121.761)" fill="#fff"/>
      <rect id="Rectangle_6088" data-name="Rectangle 6088" width="21.426" height="21.426" transform="translate(229.717 46.343)" fill="#fc636b"/>
      <path id="Path_9801" data-name="Path 9801" d="M90.831,63.83A30.685,30.685,0,0,0,95.286,67.6c4.869,3.146,8.52,4.731,14.055,3.054a15.18,15.18,0,0,1-1.608-4.869C107.412,63.485,89.683,55.1,90,58.089,90.188,59.926,90.831,63.83,90.831,63.83Z" transform="translate(34.142 -5.499)" fill="#b1855e"/>
      <path id="Path_9802" data-name="Path 9802" d="M117.94,54a142.988,142.988,0,0,1-.505,18.372,16.994,16.994,0,0,1-4.823,8.359,13.159,13.159,0,0,1-11.069.85,35.251,35.251,0,0,1-10.128-6.729h0a4.774,4.774,0,0,1-.528-.62h0a21.286,21.286,0,0,1-.735-2.136c-1.355-4.363-4.065-13.572-4.065-13.572s23.976-12.4,24.343-9.553C110.66,50.761,117.527,50.026,117.94,54Z" transform="translate(34.43 -17.048)" fill="#d7aa79"/>
      <path id="Path_9803" data-name="Path 9803" d="M110.651,50a20.669,20.669,0,0,0-8.153,0c-1.378.184-2.756.39-4.111.643A8.819,8.819,0,0,0,94.9,51.7a1.171,1.171,0,0,0-.367,1.1h0a1.332,1.332,0,0,0,.873.873A8.75,8.75,0,0,1,94.07,57.1a5.9,5.9,0,0,1-6.315.85c-1.4-.459-2.3,1.722-.758,2.159a8.681,8.681,0,0,0,6.89-.161,7.165,7.165,0,0,0,3.629-5.282c.184-.712.505-.781,1.217-.965a13.779,13.779,0,0,1,1.952-.322,36.745,36.745,0,0,1,3.9-.184c2,0,5.282.321,6.545-1.631A1.148,1.148,0,0,0,110.651,50Z" transform="translate(40.962 -15.689)" fill="#b1855e"/>
      <path id="Path_9804" data-name="Path 9804" d="M123.507,48.059a4.708,4.708,0,0,0-1.516-2.3,5.42,5.42,0,0,0-2.3-1.079,4.731,4.731,0,0,0-4.065,1.1h-.138a4.34,4.34,0,0,0-.827-1.309A4.754,4.754,0,0,0,112.6,42.8a5.764,5.764,0,0,0-4.593,0,4.708,4.708,0,0,0-2.021,1.7,4.134,4.134,0,0,0-1.033-.8,3.835,3.835,0,0,0-2.136-.459,3.674,3.674,0,0,0-2.044.712,3.743,3.743,0,0,0-1.1,1.286v-.207a3.973,3.973,0,0,0-.712-1.585,3.927,3.927,0,0,0-1.631-1.24,4.226,4.226,0,0,0-2.067-.322,5.721,5.721,0,0,0-1.056.207l-.482.207a4.731,4.731,0,0,0-1.631,1.286,3.835,3.835,0,0,0-.8,1.883,4.18,4.18,0,0,0,.574,2.5,2.031,2.031,0,0,0,.23.689l.207.39-.436.23h0a1.975,1.975,0,0,0-.528-.3,4.18,4.18,0,0,0-2.3-.276,4.914,4.914,0,0,0-2.113.9,4.593,4.593,0,0,0-1.4,1.745,5.534,5.534,0,0,0-.413,2.3,4.937,4.937,0,0,0,.482,1.814l.276.482c-.482.8-1.516,1.814-1.791,2.48a12.034,12.034,0,0,0-.8,2.825c0,.3,0,.62,0,.919a25.445,25.445,0,0,0,5.512,19.5l1.079-.9c-.712-6.89.9-6.338.482-11.345,3.215.138,4.432.758,7.349-.666s2.664-3.146,3.422-5.9a2.067,2.067,0,0,1,1.722-1.47c3.858-.459,5.351,2.3,11.988-.643h0a2.848,2.848,0,0,0,3.651.781,4.8,4.8,0,0,0,1.86-1.447,5.763,5.763,0,0,0,1.033-2.136,4.591,4.591,0,0,0,.138-1.493h0a3.721,3.721,0,0,0-.436-2.3,4.593,4.593,0,0,0,1.493-1.171,5.282,5.282,0,0,0,.942-4.915Z" transform="translate(35.707 -25.714)" fill="#484842"/>
      <ellipse id="Ellipse_907" data-name="Ellipse 907" cx="0.735" cy="0.735" rx="0.735" ry="0.735" transform="translate(149.546 48.663)" fill="#1d1e1c"/>
      <ellipse id="Ellipse_908" data-name="Ellipse 908" cx="0.735" cy="0.735" rx="0.735" ry="0.735" transform="translate(142.243 49.398)" fill="#1d1e1c"/>
      <path id="Path_9805" data-name="Path 9805" d="M97.139,57.76c0,.965.459,4.593,2.871,4.317l.689,4.593c.3.965,2.687,3.008,2.687,3.008.161-2.3.184-15.387-1.47-15.961C98.356,52.455,97.323,55.486,97.139,57.76Z" transform="translate(23.631 -10.727)" fill="#d7aa79"/>
      <path id="Path_9806" data-name="Path 9806" d="M92.416,54.564c4.846.643,8.75-2.8,12.034-5.879.276-.253.689.161.413.413-3.4,3.169-7.441,6.706-12.447,6.04C92.049,55.138,92.049,54.518,92.416,54.564Z" transform="translate(33.614 -16.97)" fill="#fff"/>
      <path id="Path_9807" data-name="Path 9807" d="M91.323,57.439a2.779,2.779,0,0,1-.62,3.146,3.054,3.054,0,0,1-1.654.758,1.975,1.975,0,0,1-1.63-.574.574.574,0,0,1,0-.8.6.6,0,0,1,.827,0H89.3l.551-.115h0l.207-.23h0v-.138h0a.322.322,0,0,0,0-.138s0,0,0-.161h0v-.3a.39.39,0,0,1,0-.161h0a5.264,5.264,0,0,0-.184-.643.574.574,0,0,1,.39-.712.6.6,0,0,1,.712.39Z" transform="translate(58.223 -5.63)" fill="#b1855e"/>
      <path id="Path_9808" data-name="Path 9808" d="M89.592,55.566a2.985,2.985,0,0,1,4.157-.3.6.6,0,0,1,0,.8.574.574,0,0,1-.827,0,.39.39,0,0,0-.138-.138h-.8a1.493,1.493,0,0,0-.436,0h-.207l-.39.253h0a1.056,1.056,0,0,0-.161.161.585.585,0,1,1-.827-.827Z" transform="translate(50.515 -9.245)" fill="#484842"/>
      <path id="Path_9809" data-name="Path 9809" d="M86.24,55.36a2.94,2.94,0,0,1,4.134-.3.574.574,0,0,1-.8.8l-.138-.023h-.827a1.332,1.332,0,0,0-.413,0h-.207l-.39.253h0l-.184.161a.577.577,0,1,1-.8-.827Z" transform="translate(61.629 -9.522)" fill="#484842"/>
    </g>
  </g>
</svg>
